<svg width="30" height="18" viewBox="0 0 30 18" fill="none" xmlns="http://www.w3.org/2000/svg">
<path d="M29.5205 1.48099L28.5378 0.491468C28.2285 0.182441 27.8171 0.0121955 27.3773 0.0121955C26.9378 0.0121955 26.5258 0.182441 26.2166 0.491468L15.0067 11.7018L3.78393 0.479028C3.47515 0.170002 3.0632 0 2.62368 0C2.18416 0 1.77197 0.170002 1.46294 0.479028L0.480004 1.46245C-0.160001 2.10197 -0.160001 3.14368 0.480004 3.7832L13.8421 17.1933C14.1508 17.5021 14.5623 17.7197 15.0057 17.7197H15.0109C15.4506 17.7197 15.8621 17.5019 16.1709 17.1933L29.5205 3.81954C29.8298 3.51076 29.9995 3.08685 30 2.64734C30 2.20758 29.8298 1.78953 29.5205 1.48099Z" fill="#8CB589"/>
</svg>
