<svg width="158" height="362" viewBox="0 0 158 362" fill="none" xmlns="http://www.w3.org/2000/svg">
<path opacity="0.2" d="M-127 189.5C-127 254.393 -36.8935 318.5 28 318.5C92.8935 318.5 53.0002 254.393 53.0002 189.5C53.0002 124.607 102.894 70 38.0001 70C-26.8934 70 -127 124.607 -127 189.5Z" fill="#8CB589"/>
<path opacity="0.8" d="M-157 119.5C-157 184.393 -66.8935 248.5 -2 248.5C62.8935 248.5 23.0002 184.393 23.0002 119.5C23.0002 54.6065 72.8935 0 8.00007 0C-56.8934 0 -157 54.6065 -157 119.5Z" fill="#8CB589"/>
<g filter="url(#filter0_f)">
<rect x="3.81641" y="357.788" width="6.16981" height="6.16981" rx="2" transform="rotate(-90 3.81641 357.788)" fill="#CED8CE"/>
<rect x="32.6193" y="357.788" width="6.16981" height="6.16981" rx="2" transform="rotate(-90 32.6193 357.788)" fill="#CED8CE"/>
<rect x="61.422" y="357.788" width="6.16981" height="6.16981" rx="2" transform="rotate(-90 61.422 357.788)" fill="#CED8CE"/>
<rect x="90.2247" y="357.788" width="6.16981" height="6.16981" rx="2" transform="rotate(-90 90.2247 357.788)" fill="#CED8CE"/>
<rect x="119.027" y="357.788" width="6.16981" height="6.16981" rx="2" transform="rotate(-90 119.027 357.788)" fill="#CED8CE"/>
<rect x="147.83" y="357.788" width="6.16981" height="6.16981" rx="2" transform="rotate(-90 147.83 357.788)" fill="#CED8CE"/>
<rect x="3.81641" y="322.384" width="6.16981" height="6.16981" rx="2" transform="rotate(-90 3.81641 322.384)" fill="#CED8CE"/>
<rect x="32.6193" y="322.384" width="6.16981" height="6.16981" rx="2" transform="rotate(-90 32.6193 322.384)" fill="#CED8CE"/>
<rect x="61.422" y="322.384" width="6.16981" height="6.16981" rx="2" transform="rotate(-90 61.422 322.384)" fill="#CED8CE"/>
<rect x="90.2247" y="322.384" width="6.16981" height="6.16981" rx="2" transform="rotate(-90 90.2247 322.384)" fill="#CED8CE"/>
<rect x="119.027" y="322.384" width="6.16981" height="6.16981" rx="2" transform="rotate(-90 119.027 322.384)" fill="#CED8CE"/>
<rect x="147.83" y="322.384" width="6.16981" height="6.16981" rx="2" transform="rotate(-90 147.83 322.384)" fill="#CED8CE"/>
<rect x="3.81641" y="286.979" width="6.16981" height="6.16981" rx="2" transform="rotate(-90 3.81641 286.979)" fill="#CED8CE"/>
<rect x="32.6193" y="286.979" width="6.16981" height="6.16981" rx="2" transform="rotate(-90 32.6193 286.979)" fill="#CED8CE"/>
<rect x="61.422" y="286.979" width="6.16981" height="6.16981" rx="2" transform="rotate(-90 61.422 286.979)" fill="#CED8CE"/>
<rect x="90.2247" y="286.979" width="6.16981" height="6.16981" rx="2" transform="rotate(-90 90.2247 286.979)" fill="#CED8CE"/>
<rect x="119.027" y="286.979" width="6.16981" height="6.16981" rx="2" transform="rotate(-90 119.027 286.979)" fill="#CED8CE"/>
<rect x="147.83" y="286.979" width="6.16981" height="6.16981" rx="2" transform="rotate(-90 147.83 286.979)" fill="#CED8CE"/>
<rect x="3.81641" y="251.574" width="6.16981" height="6.16981" rx="2" transform="rotate(-90 3.81641 251.574)" fill="#CED8CE"/>
<rect x="32.6193" y="251.574" width="6.16981" height="6.16981" rx="2" transform="rotate(-90 32.6193 251.574)" fill="#CED8CE"/>
<rect x="61.422" y="251.574" width="6.16981" height="6.16981" rx="2" transform="rotate(-90 61.422 251.574)" fill="#CED8CE"/>
<rect x="90.2247" y="251.574" width="6.16981" height="6.16981" rx="2" transform="rotate(-90 90.2247 251.574)" fill="#CED8CE"/>
<rect x="119.027" y="251.574" width="6.16981" height="6.16981" rx="2" transform="rotate(-90 119.027 251.574)" fill="#CED8CE"/>
<rect x="147.83" y="251.574" width="6.16981" height="6.16981" rx="2" transform="rotate(-90 147.83 251.574)" fill="#CED8CE"/>
<rect x="3.81641" y="216.17" width="6.16981" height="6.16981" rx="2" transform="rotate(-90 3.81641 216.17)" fill="#CED8CE"/>
<rect x="32.6193" y="216.17" width="6.16981" height="6.16981" rx="2" transform="rotate(-90 32.6193 216.17)" fill="#CED8CE"/>
<rect x="61.422" y="216.17" width="6.16981" height="6.16981" rx="2" transform="rotate(-90 61.422 216.17)" fill="#CED8CE"/>
<rect x="90.2247" y="216.17" width="6.16981" height="6.16981" rx="2" transform="rotate(-90 90.2247 216.17)" fill="#CED8CE"/>
<rect x="119.027" y="216.17" width="6.16981" height="6.16981" rx="2" transform="rotate(-90 119.027 216.17)" fill="#CED8CE"/>
<rect x="147.83" y="216.17" width="6.16981" height="6.16981" rx="2" transform="rotate(-90 147.83 216.17)" fill="#CED8CE"/>
</g>
<defs>
<filter id="filter0_f" x="-173" y="206" width="331" height="155.788" filterUnits="userSpaceOnUse" color-interpolation-filters="sRGB">
<feFlood flood-opacity="0" result="BackgroundImageFix"/>
<feBlend mode="normal" in="SourceGraphic" in2="BackgroundImageFix" result="shape"/>
<feGaussianBlur stdDeviation="2" result="effect1_foregroundBlur"/>
</filter>
</defs>
</svg>
