<svg width="168" height="319" viewBox="0 0 168 319" fill="none" xmlns="http://www.w3.org/2000/svg">
<path opacity="0.2" d="M297.319 189.5C297.319 254.393 207.213 318.5 142.319 318.5C77.4259 318.5 117.319 254.393 117.319 189.5C117.319 124.607 67.4258 70 132.319 70C197.213 70 297.319 124.607 297.319 189.5Z" fill="#8CB589"/>
<path opacity="0.8" d="M327.319 119.5C327.319 184.393 237.213 248.5 172.319 248.5C107.426 248.5 147.319 184.393 147.319 119.5C147.319 54.6065 97.4258 0 162.319 0C227.213 0 327.319 54.6065 327.319 119.5Z" fill="#8CB589"/>
<g filter="url(#filter0_f)">
<rect x="4" y="158.721" width="5.74412" height="5.74412" rx="2" transform="rotate(-90 4 158.721)" fill="#CED8CE"/>
<rect x="33.7441" y="158.721" width="5.74412" height="5.74412" rx="2" transform="rotate(-90 33.7441 158.721)" fill="#CED8CE"/>
<rect x="63.4883" y="158.721" width="5.74412" height="5.74412" rx="2" transform="rotate(-90 63.4883 158.721)" fill="#CED8CE"/>
<rect x="93.2324" y="158.721" width="5.74412" height="5.74412" rx="2" transform="rotate(-90 93.2324 158.721)" fill="#CED8CE"/>
<rect x="122.977" y="158.721" width="5.74412" height="5.74412" rx="2" transform="rotate(-90 122.977 158.721)" fill="#CED8CE"/>
<rect x="152.721" y="158.721" width="5.74412" height="5.74412" rx="2" transform="rotate(-90 152.721 158.721)" fill="#CED8CE"/>
<rect x="4" y="125.977" width="5.74412" height="5.74412" rx="2" transform="rotate(-90 4 125.977)" fill="#CED8CE"/>
<rect x="33.7441" y="125.977" width="5.74412" height="5.74412" rx="2" transform="rotate(-90 33.7441 125.977)" fill="#CED8CE"/>
<rect x="63.4883" y="125.977" width="5.74412" height="5.74412" rx="2" transform="rotate(-90 63.4883 125.977)" fill="#CED8CE"/>
<rect x="93.2324" y="125.977" width="5.74412" height="5.74412" rx="2" transform="rotate(-90 93.2324 125.977)" fill="#CED8CE"/>
<rect x="122.977" y="125.977" width="5.74412" height="5.74412" rx="2" transform="rotate(-90 122.977 125.977)" fill="#CED8CE"/>
<rect x="152.721" y="125.977" width="5.74412" height="5.74412" rx="2" transform="rotate(-90 152.721 125.977)" fill="#CED8CE"/>
<rect x="4" y="93.2324" width="5.74412" height="5.74412" rx="2" transform="rotate(-90 4 93.2324)" fill="#CED8CE"/>
<rect x="33.7441" y="93.2324" width="5.74412" height="5.74412" rx="2" transform="rotate(-90 33.7441 93.2324)" fill="#CED8CE"/>
<rect x="63.4883" y="93.2324" width="5.74412" height="5.74412" rx="2" transform="rotate(-90 63.4883 93.2324)" fill="#CED8CE"/>
<rect x="93.2324" y="93.2324" width="5.74412" height="5.74412" rx="2" transform="rotate(-90 93.2324 93.2324)" fill="#CED8CE"/>
<rect x="122.977" y="93.2324" width="5.74412" height="5.74412" rx="2" transform="rotate(-90 122.977 93.2324)" fill="#CED8CE"/>
<rect x="152.721" y="93.2324" width="5.74412" height="5.74412" rx="2" transform="rotate(-90 152.721 93.2324)" fill="#CED8CE"/>
<rect x="4" y="60.4883" width="5.74412" height="5.74412" rx="2" transform="rotate(-90 4 60.4883)" fill="#CED8CE"/>
<rect x="33.7441" y="60.4883" width="5.74412" height="5.74412" rx="2" transform="rotate(-90 33.7441 60.4883)" fill="#CED8CE"/>
<rect x="63.4883" y="60.4883" width="5.74412" height="5.74412" rx="2" transform="rotate(-90 63.4883 60.4883)" fill="#CED8CE"/>
<rect x="93.2324" y="60.4883" width="5.74412" height="5.74412" rx="2" transform="rotate(-90 93.2324 60.4883)" fill="#CED8CE"/>
<rect x="122.977" y="60.4883" width="5.74412" height="5.74412" rx="2" transform="rotate(-90 122.977 60.4883)" fill="#CED8CE"/>
<rect x="152.721" y="60.4883" width="5.74412" height="5.74412" rx="2" transform="rotate(-90 152.721 60.4883)" fill="#CED8CE"/>
<rect x="4" y="27.7441" width="5.74412" height="5.74412" rx="2" transform="rotate(-90 4 27.7441)" fill="#CED8CE"/>
<rect x="33.7441" y="27.7441" width="5.74412" height="5.74412" rx="2" transform="rotate(-90 33.7441 27.7441)" fill="#CED8CE"/>
<rect x="63.4883" y="27.7441" width="5.74412" height="5.74412" rx="2" transform="rotate(-90 63.4883 27.7441)" fill="#CED8CE"/>
<rect x="93.2324" y="27.7441" width="5.74412" height="5.74412" rx="2" transform="rotate(-90 93.2324 27.7441)" fill="#CED8CE"/>
<rect x="122.977" y="27.7441" width="5.74412" height="5.74412" rx="2" transform="rotate(-90 122.977 27.7441)" fill="#CED8CE"/>
<rect x="152.721" y="27.7441" width="5.74412" height="5.74412" rx="2" transform="rotate(-90 152.721 27.7441)" fill="#CED8CE"/>
</g>
<defs>
<filter id="filter0_f" x="0" y="18" width="340.93" height="144.721" filterUnits="userSpaceOnUse" color-interpolation-filters="sRGB">
<feFlood flood-opacity="0" result="BackgroundImageFix"/>
<feBlend mode="normal" in="SourceGraphic" in2="BackgroundImageFix" result="shape"/>
<feGaussianBlur stdDeviation="2" result="effect1_foregroundBlur"/>
</filter>
</defs>
</svg>
