<svg width="365" height="263" viewBox="0 0 365 263" fill="none" xmlns="http://www.w3.org/2000/svg">
<g opacity="0.9" filter="url(#filter0_f)">
<mask id="mask0" mask-type="alpha" maskUnits="userSpaceOnUse" x="3" y="0" width="356" height="356">
<circle cx="180.739" cy="177.739" r="177.739" fill="#C4C4C4"/>
</mask>
<g mask="url(#mask0)">
<rect x="13.7941" y="244.224" width="7.79354" height="7.79354" transform="rotate(-90 13.7941 244.224)" fill="#CED8CE"/>
<rect x="58.6066" y="244.224" width="7.79354" height="7.79354" transform="rotate(-90 58.6066 244.224)" fill="#CED8CE"/>
<rect x="103.42" y="244.224" width="7.79354" height="7.79354" transform="rotate(-90 103.42 244.224)" fill="#CED8CE"/>
<rect x="148.232" y="244.224" width="7.79354" height="7.79354" transform="rotate(-90 148.232 244.224)" fill="#CED8CE"/>
<rect x="193.045" y="244.223" width="7.79354" height="7.79354" transform="rotate(-90 193.045 244.223)" fill="#CED8CE"/>
<rect x="237.858" y="244.223" width="7.79354" height="7.79354" transform="rotate(-90 237.858 244.223)" fill="#CED8CE"/>
<rect x="282.671" y="244.223" width="7.79354" height="7.79354" transform="rotate(-90 282.671 244.223)" fill="#CED8CE"/>
<rect x="327.482" y="244.223" width="7.79354" height="7.79354" transform="rotate(-90 327.482 244.223)" fill="#CED8CE"/>
<rect x="13.7941" y="199.41" width="7.79354" height="7.79354" transform="rotate(-90 13.7941 199.41)" fill="#CED8CE"/>
<rect x="58.6066" y="199.41" width="7.79354" height="7.79354" transform="rotate(-90 58.6066 199.41)" fill="#CED8CE"/>
<rect x="103.42" y="199.41" width="7.79354" height="7.79354" transform="rotate(-90 103.42 199.41)" fill="#CED8CE"/>
<rect x="148.232" y="199.41" width="7.79354" height="7.79354" transform="rotate(-90 148.232 199.41)" fill="#CED8CE"/>
<rect x="193.045" y="199.41" width="7.79354" height="7.79354" transform="rotate(-90 193.045 199.41)" fill="#CED8CE"/>
<rect x="237.858" y="199.41" width="7.79354" height="7.79354" transform="rotate(-90 237.858 199.41)" fill="#CED8CE"/>
<rect x="282.671" y="199.41" width="7.79354" height="7.79354" transform="rotate(-90 282.671 199.41)" fill="#CED8CE"/>
<rect x="327.482" y="199.41" width="7.79354" height="7.79354" transform="rotate(-90 327.482 199.41)" fill="#CED8CE"/>
<rect x="13.7941" y="154.595" width="7.79354" height="7.79354" transform="rotate(-90 13.7941 154.595)" fill="#CED8CE"/>
<rect x="58.6066" y="154.595" width="7.79354" height="7.79354" transform="rotate(-90 58.6066 154.595)" fill="#CED8CE"/>
<rect x="103.42" y="154.595" width="7.79354" height="7.79354" transform="rotate(-90 103.42 154.595)" fill="#CED8CE"/>
<rect x="148.232" y="154.595" width="7.79354" height="7.79354" transform="rotate(-90 148.232 154.595)" fill="#CED8CE"/>
<rect x="193.045" y="154.595" width="7.79354" height="7.79354" transform="rotate(-90 193.045 154.595)" fill="#CED8CE"/>
<rect x="237.858" y="154.595" width="7.79354" height="7.79354" transform="rotate(-90 237.858 154.595)" fill="#CED8CE"/>
<rect x="282.671" y="154.595" width="7.79354" height="7.79354" transform="rotate(-90 282.671 154.595)" fill="#CED8CE"/>
<rect x="327.482" y="154.595" width="7.79354" height="7.79354" transform="rotate(-90 327.482 154.595)" fill="#CED8CE"/>
<rect x="13.7941" y="109.784" width="7.79354" height="7.79354" transform="rotate(-90 13.7941 109.784)" fill="#CED8CE"/>
<rect x="58.6066" y="109.784" width="7.79354" height="7.79354" transform="rotate(-90 58.6066 109.784)" fill="#CED8CE"/>
<rect x="103.42" y="109.784" width="7.79354" height="7.79354" transform="rotate(-90 103.42 109.784)" fill="#CED8CE"/>
<rect x="148.232" y="109.784" width="7.79354" height="7.79354" transform="rotate(-90 148.232 109.784)" fill="#CED8CE"/>
<rect x="193.045" y="109.784" width="7.79354" height="7.79354" transform="rotate(-90 193.045 109.784)" fill="#CED8CE"/>
<rect x="237.858" y="109.784" width="7.79354" height="7.79354" transform="rotate(-90 237.858 109.784)" fill="#CED8CE"/>
<rect x="282.671" y="109.784" width="7.79354" height="7.79354" transform="rotate(-90 282.671 109.784)" fill="#CED8CE"/>
<rect x="327.482" y="109.784" width="7.79354" height="7.79354" transform="rotate(-90 327.482 109.784)" fill="#CED8CE"/>
<rect x="13.7941" y="64.9709" width="7.79354" height="7.79354" transform="rotate(-90 13.7941 64.9709)" fill="#CED8CE"/>
<rect x="58.6066" y="64.9709" width="7.79354" height="7.79354" transform="rotate(-90 58.6066 64.9709)" fill="#CED8CE"/>
<rect x="103.42" y="64.9709" width="7.79354" height="7.79354" transform="rotate(-90 103.42 64.9709)" fill="#CED8CE"/>
<rect x="148.232" y="64.9709" width="7.79354" height="7.79354" transform="rotate(-90 148.232 64.9709)" fill="#CED8CE"/>
<rect x="193.045" y="64.9709" width="7.79354" height="7.79354" transform="rotate(-90 193.045 64.9709)" fill="#CED8CE"/>
<rect x="237.858" y="64.9709" width="7.79354" height="7.79354" transform="rotate(-90 237.858 64.9709)" fill="#CED8CE"/>
<rect x="282.671" y="64.9709" width="7.79354" height="7.79354" transform="rotate(-90 282.671 64.9709)" fill="#CED8CE"/>
<rect x="327.482" y="64.9709" width="7.79354" height="7.79354" transform="rotate(-90 327.482 64.9709)" fill="#CED8CE"/>
<rect x="13.7941" y="20.158" width="7.79354" height="7.79354" transform="rotate(-90 13.7941 20.158)" fill="#CED8CE"/>
<rect x="58.6066" y="20.158" width="7.79354" height="7.79354" transform="rotate(-90 58.6066 20.158)" fill="#CED8CE"/>
<rect x="103.42" y="20.158" width="7.79354" height="7.79354" transform="rotate(-90 103.42 20.158)" fill="#CED8CE"/>
<rect x="148.232" y="20.158" width="7.79354" height="7.79354" transform="rotate(-90 148.232 20.158)" fill="#CED8CE"/>
<rect x="193.045" y="20.158" width="7.79354" height="7.79354" transform="rotate(-90 193.045 20.158)" fill="#CED8CE"/>
<rect x="237.858" y="20.158" width="7.79354" height="7.79354" transform="rotate(-90 237.858 20.158)" fill="#CED8CE"/>
<rect x="282.671" y="20.158" width="7.79354" height="7.79354" transform="rotate(-90 282.671 20.158)" fill="#CED8CE"/>
<rect x="327.482" y="20.158" width="7.79354" height="7.79354" transform="rotate(-90 327.482 20.158)" fill="#CED8CE"/>
</g>
</g>
<path opacity="0.2" d="M219.654 290.719C215.042 320.842 81.5746 371.266 26.0683 371.266C-29.4381 371.266 -45.96 107.753 2.33342 103.432C50.6268 99.1112 48.0165 180.05 93.6992 205.589C139.382 231.128 224.267 260.596 219.654 290.719Z" fill="#8CB589"/>
<path opacity="0.8" d="M270.895 284.122C266.567 327.835 63.9754 300.242 -17.2772 312.874C-98.5298 325.507 -144.98 143.816 -74.8682 129.078C-4.75677 114.339 -2.20066 212.585 68.1151 224.336C138.431 236.088 275.223 240.409 270.895 284.122Z" fill="#8CB589"/>
<defs>
<filter id="filter0_f" x="-3" y="6.3645" width="367.478" height="355.113" filterUnits="userSpaceOnUse" color-interpolation-filters="sRGB">
<feFlood flood-opacity="0" result="BackgroundImageFix"/>
<feBlend mode="normal" in="SourceGraphic" in2="BackgroundImageFix" result="shape"/>
<feGaussianBlur stdDeviation="3" result="effect1_foregroundBlur"/>
</filter>
</defs>
</svg>
