<svg width="1167" height="222" viewBox="0 0 1167 222" fill="none" xmlns="http://www.w3.org/2000/svg">
<path d="M11.6832 -123.812C11.6832 -123.812 399.534 -134.246 588.092 -83.4844C721.892 -47.4642 776.25 41.2966 913.926 56.967C1009.7 67.8679 1063.62 28.0069 1159.76 34.9301C1315.06 46.1136 1536.39 165.748 1536.39 165.748" stroke="#8CB589"/>
<path d="M26.0172 -81.45C26.0172 -81.45 413.868 -91.8835 602.426 -41.1221C736.226 -5.1019 790.584 83.6589 928.26 99.3293C1024.03 110.23 1077.95 70.3692 1174.09 77.2924C1329.4 88.4759 1550.73 208.111 1550.73 208.111" stroke="#8CB589"/>
<path d="M14.9849 -9.14055C14.9849 -9.14055 402.139 -34.61 592.524 8.7995C727.621 39.6028 785.381 126.188 923.56 136.507C1019.68 143.685 1072.02 101.762 1168.36 104.951C1323.97 110.103 1549.78 221.062 1549.78 221.062" stroke="#8CB589"/>
</svg>
