<svg width="162" height="319" viewBox="0 0 162 319" fill="none" xmlns="http://www.w3.org/2000/svg">
<path opacity="0.2" d="M261.319 189.5C261.319 254.393 171.213 318.5 106.319 318.5C41.4259 318.5 81.3191 254.393 81.3191 189.5C81.3191 124.607 31.4258 70 96.3193 70C161.213 70 261.319 124.607 261.319 189.5Z" fill="#8CB589"/>
<path opacity="0.8" d="M291.319 119.5C291.319 184.393 201.213 248.5 136.319 248.5C71.4259 248.5 111.319 184.393 111.319 119.5C111.319 54.6065 61.4258 0 126.319 0C191.213 0 291.319 54.6065 291.319 119.5Z" fill="#8CB589"/>
<g filter="url(#filter0_f)">
<rect x="4" y="268.721" width="5.74412" height="5.74412" rx="2" transform="rotate(-90 4 268.721)" fill="#CED8CE"/>
<rect x="33.7441" y="268.721" width="5.74412" height="5.74412" rx="2" transform="rotate(-90 33.7441 268.721)" fill="#CED8CE"/>
<rect x="63.4883" y="268.721" width="5.74412" height="5.74412" rx="2" transform="rotate(-90 63.4883 268.721)" fill="#CED8CE"/>
<rect x="93.2324" y="268.721" width="5.74412" height="5.74412" rx="2" transform="rotate(-90 93.2324 268.721)" fill="#CED8CE"/>
<rect x="122.977" y="268.721" width="5.74412" height="5.74412" rx="2" transform="rotate(-90 122.977 268.721)" fill="#CED8CE"/>
<rect x="152.721" y="268.721" width="5.74412" height="5.74412" rx="2" transform="rotate(-90 152.721 268.721)" fill="#CED8CE"/>
<rect x="4" y="235.977" width="5.74412" height="5.74412" rx="2" transform="rotate(-90 4 235.977)" fill="#CED8CE"/>
<rect x="33.7441" y="235.977" width="5.74412" height="5.74412" rx="2" transform="rotate(-90 33.7441 235.977)" fill="#CED8CE"/>
<rect x="63.4883" y="235.977" width="5.74412" height="5.74412" rx="2" transform="rotate(-90 63.4883 235.977)" fill="#CED8CE"/>
<rect x="93.2324" y="235.977" width="5.74412" height="5.74412" rx="2" transform="rotate(-90 93.2324 235.977)" fill="#CED8CE"/>
<rect x="122.977" y="235.977" width="5.74412" height="5.74412" rx="2" transform="rotate(-90 122.977 235.977)" fill="#CED8CE"/>
<rect x="152.721" y="235.977" width="5.74412" height="5.74412" rx="2" transform="rotate(-90 152.721 235.977)" fill="#CED8CE"/>
<rect x="4" y="203.232" width="5.74412" height="5.74412" rx="2" transform="rotate(-90 4 203.232)" fill="#CED8CE"/>
<rect x="33.7441" y="203.232" width="5.74412" height="5.74412" rx="2" transform="rotate(-90 33.7441 203.232)" fill="#CED8CE"/>
<rect x="63.4883" y="203.232" width="5.74412" height="5.74412" rx="2" transform="rotate(-90 63.4883 203.232)" fill="#CED8CE"/>
<rect x="93.2324" y="203.232" width="5.74412" height="5.74412" rx="2" transform="rotate(-90 93.2324 203.232)" fill="#CED8CE"/>
<rect x="122.977" y="203.232" width="5.74412" height="5.74412" rx="2" transform="rotate(-90 122.977 203.232)" fill="#CED8CE"/>
<rect x="152.721" y="203.232" width="5.74412" height="5.74412" rx="2" transform="rotate(-90 152.721 203.232)" fill="#CED8CE"/>
<rect x="4" y="170.488" width="5.74412" height="5.74412" rx="2" transform="rotate(-90 4 170.488)" fill="#CED8CE"/>
<rect x="33.7441" y="170.488" width="5.74412" height="5.74412" rx="2" transform="rotate(-90 33.7441 170.488)" fill="#CED8CE"/>
<rect x="63.4883" y="170.488" width="5.74412" height="5.74412" rx="2" transform="rotate(-90 63.4883 170.488)" fill="#CED8CE"/>
<rect x="93.2324" y="170.488" width="5.74412" height="5.74412" rx="2" transform="rotate(-90 93.2324 170.488)" fill="#CED8CE"/>
<rect x="122.977" y="170.488" width="5.74412" height="5.74412" rx="2" transform="rotate(-90 122.977 170.488)" fill="#CED8CE"/>
<rect x="152.721" y="170.488" width="5.74412" height="5.74412" rx="2" transform="rotate(-90 152.721 170.488)" fill="#CED8CE"/>
<rect x="4" y="137.744" width="5.74412" height="5.74412" rx="2" transform="rotate(-90 4 137.744)" fill="#CED8CE"/>
<rect x="33.7441" y="137.744" width="5.74412" height="5.74412" rx="2" transform="rotate(-90 33.7441 137.744)" fill="#CED8CE"/>
<rect x="63.4883" y="137.744" width="5.74412" height="5.74412" rx="2" transform="rotate(-90 63.4883 137.744)" fill="#CED8CE"/>
<rect x="93.2324" y="137.744" width="5.74412" height="5.74412" rx="2" transform="rotate(-90 93.2324 137.744)" fill="#CED8CE"/>
<rect x="122.977" y="137.744" width="5.74412" height="5.74412" rx="2" transform="rotate(-90 122.977 137.744)" fill="#CED8CE"/>
<rect x="152.721" y="137.744" width="5.74412" height="5.74412" rx="2" transform="rotate(-90 152.721 137.744)" fill="#CED8CE"/>
</g>
<defs>
<filter id="filter0_f" x="0" y="128" width="340.93" height="144.721" filterUnits="userSpaceOnUse" color-interpolation-filters="sRGB">
<feFlood flood-opacity="0" result="BackgroundImageFix"/>
<feBlend mode="normal" in="SourceGraphic" in2="BackgroundImageFix" result="shape"/>
<feGaussianBlur stdDeviation="2" result="effect1_foregroundBlur"/>
</filter>
</defs>
</svg>
