<svg width="168" height="353" viewBox="0 0 168 353" fill="none" xmlns="http://www.w3.org/2000/svg">
<path opacity="0.2" d="M-87 223.5C-87 288.393 3.10654 352.5 68 352.5C132.893 352.5 93.0002 288.393 93.0002 223.5C93.0002 158.607 142.894 104 78.0001 104C13.1066 104 -87 158.607 -87 223.5Z" fill="#8CB589"/>
<path opacity="0.8" d="M-117 153.5C-117 218.393 -26.8935 282.5 38 282.5C102.893 282.5 63.0002 218.393 63.0002 153.5C63.0002 88.6065 112.894 34 48.0001 34C-16.8934 34 -117 88.6065 -117 153.5Z" fill="#8CB589"/>
<g filter="url(#filter0_f)">
<rect x="13.8164" y="151.788" width="6.16981" height="6.16981" rx="2" transform="rotate(-90 13.8164 151.788)" fill="#CED8CE"/>
<rect x="42.6193" y="151.788" width="6.16981" height="6.16981" rx="2" transform="rotate(-90 42.6193 151.788)" fill="#CED8CE"/>
<rect x="71.422" y="151.788" width="6.16981" height="6.16981" rx="2" transform="rotate(-90 71.422 151.788)" fill="#CED8CE"/>
<rect x="100.225" y="151.788" width="6.16981" height="6.16981" rx="2" transform="rotate(-90 100.225 151.788)" fill="#CED8CE"/>
<rect x="129.027" y="151.788" width="6.16981" height="6.16981" rx="2" transform="rotate(-90 129.027 151.788)" fill="#CED8CE"/>
<rect x="157.83" y="151.788" width="6.16981" height="6.16981" rx="2" transform="rotate(-90 157.83 151.788)" fill="#CED8CE"/>
<rect x="13.8164" y="116.384" width="6.16981" height="6.16981" rx="2" transform="rotate(-90 13.8164 116.384)" fill="#CED8CE"/>
<rect x="42.6193" y="116.384" width="6.16981" height="6.16981" rx="2" transform="rotate(-90 42.6193 116.384)" fill="#CED8CE"/>
<rect x="71.422" y="116.384" width="6.16981" height="6.16981" rx="2" transform="rotate(-90 71.422 116.384)" fill="#CED8CE"/>
<rect x="100.225" y="116.384" width="6.16981" height="6.16981" rx="2" transform="rotate(-90 100.225 116.384)" fill="#CED8CE"/>
<rect x="129.027" y="116.384" width="6.16981" height="6.16981" rx="2" transform="rotate(-90 129.027 116.384)" fill="#CED8CE"/>
<rect x="157.83" y="116.384" width="6.16981" height="6.16981" rx="2" transform="rotate(-90 157.83 116.384)" fill="#CED8CE"/>
<rect x="13.8164" y="80.9788" width="6.16981" height="6.16981" rx="2" transform="rotate(-90 13.8164 80.9788)" fill="#CED8CE"/>
<rect x="42.6193" y="80.979" width="6.16981" height="6.16981" rx="2" transform="rotate(-90 42.6193 80.979)" fill="#CED8CE"/>
<rect x="71.422" y="80.979" width="6.16981" height="6.16981" rx="2" transform="rotate(-90 71.422 80.979)" fill="#CED8CE"/>
<rect x="100.225" y="80.979" width="6.16981" height="6.16981" rx="2" transform="rotate(-90 100.225 80.979)" fill="#CED8CE"/>
<rect x="129.027" y="80.979" width="6.16981" height="6.16981" rx="2" transform="rotate(-90 129.027 80.979)" fill="#CED8CE"/>
<rect x="157.83" y="80.979" width="6.16981" height="6.16981" rx="2" transform="rotate(-90 157.83 80.979)" fill="#CED8CE"/>
<rect x="13.8164" y="45.5742" width="6.16981" height="6.16981" rx="2" transform="rotate(-90 13.8164 45.5742)" fill="#CED8CE"/>
<rect x="42.6193" y="45.5742" width="6.16981" height="6.16981" rx="2" transform="rotate(-90 42.6193 45.5742)" fill="#CED8CE"/>
<rect x="71.422" y="45.5742" width="6.16981" height="6.16981" rx="2" transform="rotate(-90 71.422 45.5742)" fill="#CED8CE"/>
<rect x="100.225" y="45.5742" width="6.16981" height="6.16981" rx="2" transform="rotate(-90 100.225 45.5742)" fill="#CED8CE"/>
<rect x="129.027" y="45.5742" width="6.16981" height="6.16981" rx="2" transform="rotate(-90 129.027 45.5742)" fill="#CED8CE"/>
<rect x="157.83" y="45.5742" width="6.16981" height="6.16981" rx="2" transform="rotate(-90 157.83 45.5742)" fill="#CED8CE"/>
<rect x="13.8164" y="10.1699" width="6.16981" height="6.16981" rx="2" transform="rotate(-90 13.8164 10.1699)" fill="#CED8CE"/>
<rect x="42.6193" y="10.1699" width="6.16981" height="6.16981" rx="2" transform="rotate(-90 42.6193 10.1699)" fill="#CED8CE"/>
<rect x="71.422" y="10.1699" width="6.16981" height="6.16981" rx="2" transform="rotate(-90 71.422 10.1699)" fill="#CED8CE"/>
<rect x="100.225" y="10.1699" width="6.16981" height="6.16981" rx="2" transform="rotate(-90 100.225 10.1699)" fill="#CED8CE"/>
<rect x="129.027" y="10.1699" width="6.16981" height="6.16981" rx="2" transform="rotate(-90 129.027 10.1699)" fill="#CED8CE"/>
<rect x="157.83" y="10.1699" width="6.16981" height="6.16981" rx="2" transform="rotate(-90 157.83 10.1699)" fill="#CED8CE"/>
</g>
<defs>
<filter id="filter0_f" x="-163" y="0" width="331" height="155.788" filterUnits="userSpaceOnUse" color-interpolation-filters="sRGB">
<feFlood flood-opacity="0" result="BackgroundImageFix"/>
<feBlend mode="normal" in="SourceGraphic" in2="BackgroundImageFix" result="shape"/>
<feGaussianBlur stdDeviation="2" result="effect1_foregroundBlur"/>
</filter>
</defs>
</svg>
