<svg width="36" height="36" viewBox="0 0 36 36" fill="none" xmlns="http://www.w3.org/2000/svg">
<g clip-path="url(#clip0)">
<path d="M30.726 5.26978C23.6955 -1.75858 12.2985 -1.75689 5.27016 5.27365C-1.75821 12.3042 -1.75652 23.7011 5.27403 30.7295C12.3046 37.7579 23.7015 37.7562 30.7299 30.7256C34.1053 27.3492 36.0011 22.7701 36 17.9958C35.999 13.2223 34.1019 8.64464 30.726 5.26978ZM27.2604 25.0734C27.2596 25.0742 27.2588 25.075 27.258 25.0758V25.0698L26.346 25.9758C25.1665 27.1702 23.4487 27.6616 21.816 27.2718C20.171 26.8315 18.6072 26.1306 17.184 25.1958C15.8617 24.3508 14.6363 23.3629 13.53 22.2498C12.5121 21.2394 11.5976 20.1298 10.8 18.9378C9.92752 17.6552 9.23698 16.2579 8.74796 14.7858C8.18735 13.0564 8.65191 11.1587 9.94798 9.88383L11.016 8.81585C11.3129 8.51758 11.7954 8.51653 12.0936 8.81346C12.0943 8.81423 12.0952 8.81501 12.096 8.81585L15.4679 12.1878C15.7662 12.4848 15.7673 12.9672 15.4703 13.2654C15.4696 13.2662 15.4688 13.267 15.4679 13.2678L13.4879 15.2478C12.9198 15.8098 12.8484 16.7027 13.32 17.3478C14.0361 18.3307 14.8286 19.2555 15.69 20.1139C16.6504 21.0784 17.6944 21.9558 18.81 22.7359C19.4545 23.1855 20.3284 23.1097 20.8859 22.5559L22.7999 20.6119C23.0968 20.3136 23.5793 20.3126 23.8775 20.6095C23.8783 20.6103 23.8791 20.611 23.8799 20.6119L27.2579 23.9959C27.5563 24.2927 27.5573 24.7752 27.2604 25.0734Z" fill="#A3C4A1"/>
</g>
<defs>
<clipPath id="clip0">
<rect width="36" height="36" fill="white"/>
</clipPath>
</defs>
</svg>
