<svg height="512" viewBox="0 0 24 24" width="512" xmlns="http://www.w3.org/2000/svg"><g id="eye"><path d="m12 18.68a13.25 13.25 0 0 1 -11.31-6.18l-.31-.5.31-.5a13.25 13.25 0 0 1 11.31-6.18 13.25 13.25 0 0 1 11.31 6.18l.31.5-.31.5a13.25 13.25 0 0 1 -11.31 6.18zm-9.36-6.68a11.37 11.37 0 0 0 9.36 4.77 11.37 11.37 0 0 0 9.36-4.77 11.37 11.37 0 0 0 -9.36-4.77 11.37 11.37 0 0 0 -9.36 4.77z"/><path d="m12 18.68a6.68 6.68 0 1 1 6.68-6.68 6.69 6.69 0 0 1 -6.68 6.68zm0-11.45a4.77 4.77 0 1 0 4.77 4.77 4.78 4.78 0 0 0 -4.77-4.77z"/><path d="m12 14.86a2.86 2.86 0 1 1 2.86-2.86 2.86 2.86 0 0 1 -2.86 2.86zm0-3.86a1 1 0 1 0 1 1 1 1 0 0 0 -1-1z"/></g></svg>