<svg width="64" height="64" viewBox="0 0 64 64" fill="none" xmlns="http://www.w3.org/2000/svg">
<g clip-path="url(#clip0)">
<path d="M27.3176 58.9441L31.9841 57.6755L36.6506 58.9441V59.3334C36.6506 61.9107 34.5614 63.9999 31.9841 63.9999C29.4069 63.9999 27.3176 61.9107 27.3176 59.3334V58.9441Z" fill="#81A67E"/>
<path d="M35.4215 58.944H27.2782C26.3595 58.944 25.6147 58.1992 25.6147 57.2805V46.2052L31.9842 44.9366L37.085 46.2052V57.2805C37.0851 58.1992 36.3403 58.944 35.4215 58.944Z" fill="#9CC999"/>
<path d="M34.9284 45.6688V57.2805C34.9284 58.1993 34.1836 58.944 33.2649 58.944H36.6901C37.6088 58.944 38.3537 58.1993 38.3537 57.2805V46.2052L34.9284 45.6688Z" fill="#8CB589"/>
<path d="M32 6.17318C31.4746 6.17318 31.0486 5.74719 31.0486 5.22174V0.951437C31.0486 0.42599 31.4746 0 32 0C32.5256 0 32.9515 0.42599 32.9515 0.951437V5.22174C32.9515 5.74719 32.5255 6.17318 32 6.17318Z" fill="#FEB179"/>
<path d="M46.2274 12.0664C45.984 12.0664 45.7404 11.9735 45.5546 11.7877C45.183 11.4161 45.183 10.8136 45.5546 10.4422L48.5742 7.4226C48.9459 7.05103 49.5482 7.05103 49.9197 7.4226C50.2913 7.79417 50.2913 8.39661 49.9197 8.76806L46.9003 11.7877C46.7144 11.9735 46.4709 12.0664 46.2274 12.0664Z" fill="#FEB179"/>
<path d="M14.7532 43.5408C14.5097 43.5408 14.2662 43.4479 14.0804 43.2621C13.7089 42.8905 13.7089 42.2881 14.0804 41.9166L17.1 38.897C17.4716 38.5255 18.0741 38.5255 18.4456 38.897C18.8172 39.2686 18.8172 39.871 18.4456 40.2425L15.426 43.2621C15.2402 43.4479 14.9966 43.5408 14.7532 43.5408Z" fill="#FEB179"/>
<path d="M17.7728 12.0664C17.5293 12.0664 17.2858 11.9735 17.1 11.7877L14.0804 8.76806C13.7089 8.39649 13.7089 7.79404 14.0804 7.4226C14.452 7.05103 15.0545 7.05103 15.4259 7.4226L18.4455 10.4422C18.8171 10.8138 18.8171 11.4162 18.4455 11.7877C18.2598 11.9735 18.0162 12.0664 17.7728 12.0664Z" fill="#FEB179"/>
<path d="M49.247 43.5408C49.0034 43.5408 48.76 43.4479 48.5742 43.2621L45.5546 40.2425C45.183 39.8709 45.183 39.2685 45.5546 38.897C45.9262 38.5253 46.5286 38.5254 46.9001 38.897L49.9197 41.9166C50.2913 42.2882 50.2913 42.8906 49.9197 43.2621C49.734 43.4479 49.4905 43.5408 49.247 43.5408Z" fill="#FEB179"/>
<path d="M11.8795 26.2937H7.60915C7.0837 26.2937 6.65771 25.8678 6.65771 25.3423C6.65771 24.8169 7.0837 24.3909 7.60915 24.3909H11.8795C12.4049 24.3909 12.8309 24.8169 12.8309 25.3423C12.8309 25.8678 12.4049 26.2937 11.8795 26.2937Z" fill="#FEB179"/>
<path d="M56.3908 26.2937H52.1204C51.5949 26.2937 51.1689 25.8678 51.1689 25.3423C51.1689 24.8169 51.5949 24.3909 52.1204 24.3909H56.3908C56.9164 24.3909 57.3422 24.8169 57.3422 25.3423C57.3422 25.8678 56.9164 26.2937 56.3908 26.2937Z" fill="#FEB179"/>
<path d="M47.1923 25.3423C47.1923 16.3211 41.204 8.99487 32.2094 8.88286C23.1276 8.7697 15.5393 16.2599 15.5393 25.3423C15.5393 30.2115 17.6537 34.5865 21.0143 37.6C23.4502 39.7845 25.0382 42.7581 25.578 45.9851L25.6148 46.2051H38.3538L38.3848 46.019C38.934 42.7356 39.3405 39.7619 41.8033 37.5221C45.1139 34.5115 47.1923 30.1699 47.1923 25.3423Z" fill="#FEB179"/>
<path d="M39.6489 51.4029H24.3513C23.8259 51.4029 23.3999 50.9769 23.3999 50.4515C23.3999 49.9261 23.8259 49.5001 24.3513 49.5001H39.6489C40.1745 49.5001 40.6004 49.9261 40.6004 50.4515C40.6004 50.9769 40.1744 51.4029 39.6489 51.4029Z" fill="#81A67E"/>
<path d="M39.6489 55.6491H24.3513C23.8259 55.6491 23.3999 55.2231 23.3999 54.6977C23.3999 54.1722 23.8259 53.7462 24.3513 53.7462H39.6489C40.1745 53.7462 40.6004 54.1722 40.6004 54.6977C40.6004 55.2232 40.1744 55.6491 39.6489 55.6491Z" fill="#81A67E"/>
<path d="M32.2092 8.88287C31.5658 8.87488 30.9303 8.90634 30.304 8.97243C38.5821 9.83672 45.0356 16.8354 45.0356 25.3424C45.0356 30.1699 42.9572 34.5115 39.6466 37.5223C37.1837 39.7621 35.5087 42.7356 34.9595 46.0191L34.9284 46.2052H38.3536L38.3847 46.0191C38.9339 42.7358 40.6089 39.7621 43.0717 37.5223C46.3823 34.5115 48.4608 30.1699 48.4608 25.3424C48.4608 16.3212 41.2039 8.99489 32.2092 8.88287Z" fill="#FF974C"/>
<path d="M43.1191 26.7238V23.9608C43.1191 23.6106 42.8351 23.3266 42.4848 23.3266H39.8787C39.6853 22.5686 39.3852 21.8535 38.9956 21.1975L40.8392 19.3539C41.087 19.1061 41.087 18.7046 40.8392 18.4568L38.8856 16.5032C38.6378 16.2555 38.2363 16.2555 37.9886 16.5032L36.145 18.3469C35.489 17.9574 34.7739 17.6573 34.0159 17.4639V14.8576C34.0159 14.5074 33.7319 14.2233 33.3816 14.2233H30.6186C30.2684 14.2233 29.9843 14.5074 29.9843 14.8576V17.4638C29.2264 17.6571 28.5113 17.9573 27.8553 18.3467L26.0116 16.5031C25.7639 16.2553 25.3624 16.2553 25.1146 16.5031L23.161 18.4567C22.9132 18.7045 22.9132 19.106 23.161 19.3537L25.0046 21.1974C24.6152 21.8533 24.315 22.5684 24.1216 23.3264H21.5154C21.1651 23.3264 20.8811 23.6105 20.8811 23.9607V26.7237C20.8811 27.0739 21.1651 27.358 21.5154 27.358H24.1216C24.3149 28.116 24.6151 28.8311 25.0046 29.487L23.161 31.3307C22.9132 31.5784 22.9132 31.9799 23.161 32.2277L25.1146 34.1813C25.3624 34.4291 25.7639 34.4291 26.0116 34.1813L27.8553 32.3377C28.5113 32.7271 29.2264 33.0273 29.9843 33.2206V35.8268C29.9843 36.177 30.2684 36.4611 30.6186 36.4611H33.3816C33.7319 36.4611 34.0159 36.177 34.0159 35.8268V33.2206C34.7739 33.0273 35.489 32.7271 36.145 32.3375L37.9886 34.1812C38.2363 34.4289 38.6378 34.4289 38.8856 34.1812L40.8392 32.2276C41.087 31.9798 41.087 31.5783 40.8392 31.3305L38.9956 29.4869C39.385 28.8309 39.6852 28.1158 39.8787 27.3579H42.4848C42.8351 27.3581 43.1191 27.0741 43.1191 26.7238ZM32.0001 29.271C29.8303 29.271 28.0714 27.5121 28.0714 25.3423C28.0714 23.1725 29.8303 21.4137 32.0001 21.4137C34.1699 21.4137 35.9288 23.1725 35.9288 25.3423C35.9288 27.5121 34.1698 29.271 32.0001 29.271Z" fill="white"/>
</g>
<defs>
<clipPath id="clip0">
<rect width="64" height="64" fill="white"/>
</clipPath>
</defs>
</svg>
