<svg width="24" height="24" viewBox="0 0 24 24" fill="none" xmlns="http://www.w3.org/2000/svg">
<path d="M16.5 0H7.5C3.3585 0 0 3.3585 0 7.5V16.5C0 20.6415 3.3585 24 7.5 24H16.5C20.6415 24 24 20.6415 24 16.5V7.5C24 3.3585 20.6415 0 16.5 0ZM21.75 16.5C21.75 19.395 19.395 21.75 16.5 21.75H7.5C4.605 21.75 2.25 19.395 2.25 16.5V7.5C2.25 4.605 4.605 2.25 7.5 2.25H16.5C19.395 2.25 21.75 4.605 21.75 7.5V16.5Z" fill="white"/>
<path d="M11.9996 6C8.68613 6 5.99963 8.6865 5.99963 12C5.99963 15.3135 8.68613 18 11.9996 18C15.3131 18 17.9996 15.3135 17.9996 12C17.9996 8.6865 15.3131 6 11.9996 6ZM11.9996 15.75C9.93263 15.75 8.24963 14.067 8.24963 12C8.24963 9.9315 9.93263 8.25 11.9996 8.25C14.0666 8.25 15.7496 9.9315 15.7496 12C15.7496 14.067 14.0666 15.75 11.9996 15.75Z" fill="white"/>
<path d="M18.4494 6.34996C18.891 6.34996 19.2489 5.99202 19.2489 5.55047C19.2489 5.10892 18.891 4.75098 18.4494 4.75098C18.0079 4.75098 17.6499 5.10892 17.6499 5.55047C17.6499 5.99202 18.0079 6.34996 18.4494 6.34996Z" fill="white"/>
</svg>
