<svg width="185" height="185" viewBox="0 0 185 185" fill="none" xmlns="http://www.w3.org/2000/svg">
<g opacity="0.3" filter="url(#filter0_f)">
<rect width="62.668" height="52.3471" rx="20" transform="matrix(-0.827387 0.561631 0.561631 0.827387 85.7231 84.0002)" fill="#8CB589"/>
</g>
<g filter="url(#filter1_bi)">
<rect width="90" height="90" rx="20" transform="matrix(-0.710205 0.703995 0.703995 0.710205 76.9446 26.7917)" fill="white"/>
</g>
<path opacity="0.8" d="M77.123 112C77.123 112 59.058 99.4901 59.1232 85.0001C59.1232 75.0754 67.1984 67.0001 77.123 67.0001C87.0477 67.0001 95.1229 75.0754 95.1229 84.9889C95.1881 99.4901 77.807 111.514 77.123 112ZM86.123 82.7501H79.373V76.0001H74.8731V82.7501H68.1231V87.2501H74.8731V94.0001H79.373V87.2501H86.123V82.7501Z" fill="#8CB589"/>
<g opacity="0.7" filter="url(#filter2_f)">
<rect x="133.372" y="6.71765" width="12" height="12" rx="2" transform="rotate(-23.1496 133.372 6.71765)" fill="#FF974C"/>
</g>
<g opacity="0.7" filter="url(#filter3_f)">
<rect width="12" height="12" rx="2" transform="matrix(-0.919481 -0.393134 -0.393134 0.919481 183.123 140.718)" fill="#8CB589"/>
</g>
<defs>
<filter id="filter0_f" x="11.6509" y="61.7787" width="125.694" height="122.951" filterUnits="userSpaceOnUse" color-interpolation-filters="sRGB">
<feFlood flood-opacity="0" result="BackgroundImageFix"/>
<feBlend mode="normal" in="SourceGraphic" in2="BackgroundImageFix" result="shape"/>
<feGaussianBlur stdDeviation="15" result="effect1_foregroundBlur"/>
</filter>
<filter id="filter1_bi" x="17.3101" y="31.0758" width="118.71" height="118.71" filterUnits="userSpaceOnUse" color-interpolation-filters="sRGB">
<feFlood flood-opacity="0" result="BackgroundImageFix"/>
<feGaussianBlur in="BackgroundImage" stdDeviation="2"/>
<feComposite in2="SourceAlpha" operator="in" result="effect1_backgroundBlur"/>
<feBlend mode="normal" in="SourceGraphic" in2="effect1_backgroundBlur" result="shape"/>
<feColorMatrix in="SourceAlpha" type="matrix" values="0 0 0 0 0 0 0 0 0 0 0 0 0 0 0 0 0 0 127 0" result="hardAlpha"/>
<feOffset dy="4"/>
<feGaussianBlur stdDeviation="10"/>
<feComposite in2="hardAlpha" operator="arithmetic" k2="-1" k3="1"/>
<feColorMatrix type="matrix" values="0 0 0 0 1 0 0 0 0 1 0 0 0 0 1 0 0 0 0.3 0"/>
<feBlend mode="normal" in2="shape" result="effect2_innerShadow"/>
</filter>
<filter id="filter2_f" x="131.997" y="0.624756" width="18.5019" height="18.5019" filterUnits="userSpaceOnUse" color-interpolation-filters="sRGB">
<feFlood flood-opacity="0" result="BackgroundImageFix"/>
<feBlend mode="normal" in="SourceGraphic" in2="BackgroundImageFix" result="shape"/>
<feGaussianBlur stdDeviation="1" result="effect1_foregroundBlur"/>
</filter>
<filter id="filter3_f" x="165.996" y="134.625" width="18.5019" height="18.5019" filterUnits="userSpaceOnUse" color-interpolation-filters="sRGB">
<feFlood flood-opacity="0" result="BackgroundImageFix"/>
<feBlend mode="normal" in="SourceGraphic" in2="BackgroundImageFix" result="shape"/>
<feGaussianBlur stdDeviation="1" result="effect1_foregroundBlur"/>
</filter>
</defs>
</svg>
