<svg width="134" height="148" viewBox="0 0 134 148" fill="none" xmlns="http://www.w3.org/2000/svg">
<g opacity="0.5" filter="url(#filter0_f)">
<rect x="28.5156" y="66.8892" width="62.668" height="52.3471" rx="20" transform="rotate(-16.1317 28.5156 66.8892)" fill="#FF974C"/>
</g>
<g opacity="0.6" filter="url(#filter1_bi)">
<rect x="5" y="25.0062" width="90" height="90" rx="20" transform="rotate(-16.1317 5 25.0062)" fill="#FF974C"/>
</g>
<g clip-path="url(#clip0)" filter="url(#filter2_f)">
<path d="M71.487 37.6444C76.0076 39.0556 78.5267 43.8617 77.1151 48.3822L69.4524 72.9275C68.0414 77.4469 63.2351 79.966 58.7161 78.5548C54.1963 77.1436 51.677 72.3372 53.088 67.8171L60.7507 43.2717C62.1619 38.7527 66.9685 36.2334 71.487 37.6444Z" fill="#FF974C" fill-opacity="0.3"/>
<path d="M56.8764 55.6821L53.0875 67.818C51.6765 72.3381 54.1958 77.1446 58.7156 78.5558C63.2348 79.9673 68.0411 77.4481 69.4519 72.9285L73.2393 60.7934L56.8764 55.6821Z" fill="#FF974C" fill-opacity="0.3"/>
<path d="M73.0296 61.4745L56.6709 56.3666L56.8815 55.6921L73.2395 60.8004L73.0296 61.4745Z" fill="#FF974C" fill-opacity="0.3"/>
<path d="M59.989 57.3973L56.2074 69.5114C56.1257 69.7726 56.0963 70.0473 56.1209 70.3199C56.1455 70.5924 56.2235 70.8575 56.3506 71.0999C56.4776 71.3422 56.6512 71.5572 56.8613 71.7325C57.0715 71.9078 57.3141 72.0399 57.5754 72.1214C57.8365 72.203 58.1112 72.2323 58.3837 72.2077C58.6562 72.1831 58.9212 72.1051 59.1635 71.9781C59.4059 71.8511 59.6208 71.6775 59.7961 71.4674C59.9714 71.2573 60.1035 71.0148 60.185 70.7536L63.9666 58.6394L59.989 57.3973Z" fill="#FF974C" fill-opacity="0.3"/>
<path d="M66.8879 42.2872C66.6266 42.2055 66.3518 42.1761 66.0791 42.2006C65.8065 42.2252 65.5413 42.3032 65.2988 42.4303C65.0564 42.5574 64.8413 42.7311 64.666 42.9413C64.4906 43.1516 64.3585 43.3943 64.277 43.6557L60.1992 56.723L64.1768 57.9651L68.2562 44.897C68.4206 44.3695 68.3688 43.7983 68.1122 43.3089C67.8556 42.8195 67.4153 42.452 66.8879 42.2872Z" fill="#FF974C" fill-opacity="0.3"/>
</g>
<g clip-path="url(#clip1)">
<path d="M82.6797 58.0332C81.432 55.8258 79.3965 54.236 76.9478 53.5556C74.5 52.8749 71.9363 53.1879 69.7289 54.4356C67.5213 55.6824 65.9314 57.718 65.2518 60.1663C64.5715 62.615 64.8835 65.179 66.1309 67.3855C68.3925 71.3881 73.1407 73.1214 77.3519 71.7464C77.9422 71.5537 78.5213 71.3001 79.0816 70.9832C81.2882 69.7358 82.8783 67.7011 83.5587 65.2525C84.2392 62.8037 83.9263 60.24 82.6797 58.0332ZM73.2787 63.3454C73.1097 63.0461 73.0669 62.6968 73.1594 62.3631C73.2059 62.1957 73.2833 62.0433 73.3866 61.9113C73.4899 61.7792 73.6192 61.6676 73.7687 61.5823C73.8445 61.5401 73.9235 61.5048 74.0045 61.4784C74.2439 61.4002 74.502 61.394 74.7512 61.4638C75.0849 61.5563 75.3619 61.7731 75.5318 62.0723C75.883 62.6936 75.6623 63.4844 75.0418 63.8354C74.7418 64.0057 74.3931 64.0472 74.0595 63.9547C73.7256 63.8614 73.448 63.6457 73.2787 63.3454Z" fill="#8CB589"/>
<path d="M66.1707 28.1844C63.9901 27.5784 61.7225 28.8602 61.1165 31.0408L48.971 74.7598C48.365 76.9404 49.6468 79.208 51.8274 79.814C52.6156 80.0326 53.4319 80.0127 54.1928 79.7642C54.4514 79.6798 54.7034 79.5695 54.9458 79.4327C55.9006 78.8926 56.5878 78.014 56.8815 76.9576L69.0271 33.2386C69.6331 31.0579 68.3514 28.7904 66.1707 28.1844Z" fill="#A3C4A1"/>
<path d="M48.2694 53.5629C52.8316 50.9847 54.4456 45.1751 51.8674 40.6129C49.2888 36.0499 43.4784 34.4362 38.9165 37.0153C34.3543 39.5935 32.7404 45.403 35.3186 49.9652C36.5663 52.1726 38.6018 53.7624 41.0505 54.4428C42.8781 54.9502 44.7702 54.9057 46.5307 54.3309C47.1276 54.1351 47.7099 53.8795 48.2694 53.5629ZM42.9565 44.163C43.032 44.12 43.1113 44.0855 43.1923 44.0591C43.4317 43.9809 43.6898 43.9747 43.9387 44.0437C44.2727 44.137 44.5502 44.3527 44.7195 44.653C44.8885 44.9523 44.9313 45.3015 44.8389 45.6353C44.7456 45.9692 44.5296 46.246 44.2296 46.4161C43.9303 46.5851 43.581 46.6279 43.247 46.5346C42.9133 46.4421 42.6363 46.2253 42.4664 45.9262C42.1153 45.3048 42.336 44.514 42.9565 44.163Z" fill="#A3C4A1"/>
<path d="M66.1704 28.1844C63.9898 27.5784 61.7222 28.8603 61.1162 31.0409L56.697 46.9483L61.3008 61.0491L69.0268 33.2386C69.6328 31.058 68.351 28.7905 66.1704 28.1844Z" fill="#8CB589"/>
</g>
<defs>
<filter id="filter0_f" x="-1.48438" y="19.4771" width="134.745" height="127.698" filterUnits="userSpaceOnUse" color-interpolation-filters="sRGB">
<feFlood flood-opacity="0" result="BackgroundImageFix"/>
<feBlend mode="normal" in="SourceGraphic" in2="BackgroundImageFix" result="shape"/>
<feGaussianBlur stdDeviation="15" result="effect1_foregroundBlur"/>
</filter>
<filter id="filter1_bi" x="1" y="-4" width="119.462" height="119.462" filterUnits="userSpaceOnUse" color-interpolation-filters="sRGB">
<feFlood flood-opacity="0" result="BackgroundImageFix"/>
<feGaussianBlur in="BackgroundImage" stdDeviation="2"/>
<feComposite in2="SourceAlpha" operator="in" result="effect1_backgroundBlur"/>
<feBlend mode="normal" in="SourceGraphic" in2="effect1_backgroundBlur" result="shape"/>
<feColorMatrix in="SourceAlpha" type="matrix" values="0 0 0 0 0 0 0 0 0 0 0 0 0 0 0 0 0 0 127 0" result="hardAlpha"/>
<feOffset dy="4"/>
<feGaussianBlur stdDeviation="10"/>
<feComposite in2="hardAlpha" operator="arithmetic" k2="-1" k3="1"/>
<feColorMatrix type="matrix" values="0 0 0 0 1 0 0 0 0 1 0 0 0 0 1 0 0 0 0.3 0"/>
<feBlend mode="normal" in2="shape" result="effect2_innerShadow"/>
</filter>
<filter id="filter2_f" x="31.2549" y="24.2548" width="67.6917" height="67.6917" filterUnits="userSpaceOnUse" color-interpolation-filters="sRGB">
<feFlood flood-opacity="0" result="BackgroundImageFix"/>
<feBlend mode="normal" in="SourceGraphic" in2="BackgroundImageFix" result="shape"/>
<feGaussianBlur stdDeviation="5" result="effect1_foregroundBlur"/>
</filter>
<clipPath id="clip0">
<rect width="35.3286" height="35.3286" fill="white" transform="translate(41.2549 50.6555) rotate(-27.6606)"/>
</clipPath>
<clipPath id="clip1">
<rect width="46" height="46" fill="white" transform="translate(29.9971 39.2744) rotate(-18.0816)"/>
</clipPath>
</defs>
</svg>
