<svg width="12" height="12" viewBox="0 0 12 12" fill="#8CB589" xmlns="http://www.w3.org/2000/svg">
<g opacity="0.7">
<path d="M10.9998 8.46005V9.96005C11.0004 10.0993 10.9719 10.2371 10.9161 10.3647C10.8603 10.4923 10.7785 10.6068 10.6759 10.701C10.5733 10.7951 10.4521 10.8668 10.3202 10.9114C10.1883 10.956 10.0485 10.9726 9.90984 10.96C8.37126 10.7929 6.89334 10.2671 5.59484 9.42505C4.38676 8.65738 3.36251 7.63313 2.59484 6.42505C1.74983 5.12065 1.22397 3.63555 1.05984 2.09005C1.04735 1.95178 1.06378 1.81243 1.10809 1.68086C1.15241 1.54929 1.22363 1.42839 1.31723 1.32586C1.41083 1.22332 1.52475 1.1414 1.65174 1.08531C1.77873 1.02922 1.91601 1.00018 2.05484 1.00005H3.55484C3.7975 0.99766 4.03274 1.08359 4.21673 1.24181C4.40071 1.40004 4.52088 1.61977 4.55484 1.86005C4.61816 2.34008 4.73557 2.81141 4.90484 3.26505C4.97212 3.44401 4.98668 3.63851 4.9468 3.82549C4.90692 4.01247 4.81428 4.1841 4.67984 4.32005L4.04484 4.95505C4.75662 6.20682 5.79307 7.24327 7.04484 7.95505L7.67984 7.32005C7.81579 7.18562 7.98742 7.09297 8.1744 7.0531C8.36139 7.01322 8.55588 7.02778 8.73484 7.09505C9.18848 7.26432 9.65981 7.38174 10.1398 7.44505C10.3827 7.47931 10.6045 7.60165 10.7631 7.7888C10.9217 7.97594 11.0059 8.21484 10.9998 8.46005Z" fill="#8CB589"/>
</g>
</svg>
