<svg width="65" height="64" viewBox="0 0 65 64" fill="none" xmlns="http://www.w3.org/2000/svg">
<path d="M7.67969 11.25H30.7197V22.5H7.67969V11.25Z" fill="#ECECEC"/>
<path d="M19.2004 11.25H30.7204V22.5H19.2004V11.25Z" fill="#A1B8D8"/>
<path d="M0 18.75H38.4V64H0V18.75Z" fill="white"/>
<path d="M19.2004 18.75H38.4004V64H19.2004V18.75Z" fill="white"/>
<path d="M3.84106 0H34.5611V15H3.84106V0Z" fill="#8CB589"/>
<path d="M19.2004 0H34.5604V15H19.2004V0Z" fill="#81A67E"/>
<path d="M0 27H38.4V55.75H0V27Z" fill="#FEB179"/>
<path d="M19.2004 27H38.4004V55.75H19.2004V27Z" fill="#FF974C"/>
<path d="M23.0391 0H26.8791V7.44925H23.0391V0Z" fill="#658262"/>
<path d="M11.5208 0H15.3608V7.44925H11.5208V0Z" fill="#9FC59C"/>
<path d="M26.2389 39.5H21.1189V34.5H17.2789V39.5H12.1589V43.25H17.2789V48.25H21.1189V43.25H26.2389V39.5Z" fill="white"/>
<path d="M21.1204 39.5V34.5H19.2004V48.25H21.1204V43.25H26.2404V39.5H21.1204Z" fill="#ECECEC"/>
<path d="M56.9598 61.25H41.5998C37.718 61.25 34.5598 58.1659 34.5598 54.375C34.5598 50.5841 37.718 47.5 41.5998 47.5H56.9598C60.8417 47.5 63.9998 50.5841 63.9998 54.375C63.9998 58.1659 60.8417 61.25 56.9598 61.25Z" fill="white"/>
<path d="M41.5998 61.25H56.9598C60.8417 61.25 63.9998 58.1659 63.9998 54.375H34.5598C34.5598 58.1659 37.718 61.25 41.5998 61.25Z" fill="#ECECEC"/>
<path d="M56.9613 47.5H49.2812V61.25H56.9613C60.8431 61.25 64.0013 58.1659 64.0013 54.375C64.0013 50.5841 60.8431 47.5 56.9613 47.5Z" fill="#FF5C5C"/>
<path d="M49.2812 61.25H56.9613C60.8431 61.25 64.0013 58.1659 64.0013 54.375H49.2812V61.25Z" fill="#FF3838"/>
<path d="M57.4383 32.1115L46.5772 42.7182C43.8323 45.3987 39.3661 45.3987 36.6211 42.7182C33.8763 40.0377 33.8763 35.676 36.6211 32.9956L47.4823 22.389C50.2273 19.7085 54.6935 19.7085 57.4384 22.389C60.1832 25.0695 60.1832 29.431 57.4383 32.1115Z" fill="white"/>
<path d="M46.5785 42.718L57.4396 32.1113C60.1844 29.4309 60.1844 25.0693 57.4396 22.3887L36.6223 42.718C39.3673 45.3986 43.8336 45.3986 46.5785 42.718Z" fill="#ECECEC"/>
<path d="M47.4825 22.3886L42.052 27.692L52.008 37.4146L57.4386 32.1112C60.1835 29.4309 60.1835 25.0692 57.4386 22.3886C54.6938 19.7081 50.2275 19.7081 47.4825 22.3886Z" fill="#5CA2FA"/>
<path d="M52.0092 37.4147L57.4398 32.1113C60.1846 29.4309 60.1846 25.0693 57.4398 22.3887L47.0312 32.5533L52.0092 37.4147Z" fill="#3D6DEF"/>
</svg>
