<svg width="36" height="36" viewBox="0 0 36 36" fill="none" xmlns="http://www.w3.org/2000/svg">
<g clip-path="url(#clip0)">
<path d="M5.00787 13.5887L4.64062 25.5938L10.9942 35.93C11.4291 35.9761 11.8659 36 12.3028 36C14.0711 36 15.8394 35.6223 17.4749 34.8671L17.6484 22.2891L10.3439 8.25357L5.00787 13.5887Z" fill="#FEB179"/>
<path d="M10.9942 35.93C11.429 35.9761 11.8659 36 12.3027 36C14.0711 36 15.8394 35.6223 17.4749 34.8671L17.6484 22.2891L16.3006 19.6993L6.83545 29.1645L10.9942 35.93Z" fill="#FF974C"/>
<path d="M17.4749 34.8671C18.7546 34.2763 19.9529 33.4544 21.0063 32.4013L27.0386 26.37L16.8047 22.0781L14.2822 22.952L17.4749 34.8671Z" fill="#FEB179"/>
<path d="M3.59977 14.997C-1.19927 19.7954 -1.19927 27.6029 3.59977 32.4013C5.66674 34.4679 8.292 35.6436 10.9947 35.93L5.00834 13.5887L3.59977 14.997Z" fill="#FF974C"/>
<path d="M3.59962 32.4013C5.6666 34.4679 8.29186 35.6436 10.9945 35.93L8.68596 27.3144L3.59962 32.4013Z" fill="#FEB179"/>
<path d="M32.4005 3.60457C30.0757 1.28011 26.9848 0 23.697 0C20.4093 0 17.3183 1.28011 14.9935 3.60457L10.3438 8.25356L14.2822 22.952L27.0385 26.37L32.4006 21.0088C37.1996 16.2104 37.1996 8.40291 32.4005 3.60457Z" fill="#8CB589"/>
<path d="M14.2823 22.952L27.0387 26.37L32.4008 21.0088C37.1999 16.2104 37.1999 8.4029 32.4008 3.60456C32.3999 3.60372 32.399 3.60287 32.3981 3.60196L14.0215 21.9786L14.2823 22.952Z" fill="#81A67E"/>
<path d="M23.6949 20.3868C21.6243 20.3868 19.5537 19.5987 17.9773 18.0223C14.8246 14.8696 14.8246 9.73977 17.9773 6.58709C21.13 3.43435 26.2599 3.43435 29.4126 6.58709C32.5653 9.73977 32.5653 14.8696 29.4126 18.0223C27.8362 19.5987 25.7656 20.3868 23.6949 20.3868Z" fill="#FFD5B2"/>
<path d="M23.6956 20.3868C25.7663 20.3868 27.8369 19.5987 29.4132 18.0223C32.5659 14.8696 32.5659 9.73977 29.4132 6.5871L17.978 18.0223C19.5544 19.5987 21.625 20.3868 23.6956 20.3868Z" fill="#FAC394"/>
<path d="M19.7177 18.7431C19.0604 18.7431 18.4424 18.4871 17.9776 18.0224C17.5128 17.5576 17.2568 16.9395 17.2568 16.2822C17.2568 15.6248 17.5128 15.0069 17.9776 14.542C18.4424 14.0772 19.0604 13.8213 19.7177 13.8213C20.3751 13.8213 20.9931 14.0773 21.4579 14.542C21.9226 15.0068 22.1786 15.6248 22.1786 16.2822C22.1786 16.9395 21.9226 17.5575 21.4579 18.0224C20.993 18.4871 20.3751 18.7431 19.7177 18.7431Z" fill="#9DDFF6"/>
<path d="M25.9326 14.6024C26.5151 14.6024 26.9873 14.1302 26.9873 13.5477C26.9873 12.9652 26.5151 12.493 25.9326 12.493C25.3501 12.493 24.8779 12.9652 24.8779 13.5477C24.8779 14.1302 25.3501 14.6024 25.9326 14.6024Z" fill="#453D81"/>
<path d="M22.4521 11.122C23.0346 11.122 23.5068 10.6498 23.5068 10.0674C23.5068 9.48486 23.0346 9.01266 22.4521 9.01266C21.8697 9.01266 21.3975 9.48486 21.3975 10.0674C21.3975 10.6498 21.8697 11.122 22.4521 11.122Z" fill="#6B61B1"/>
<path d="M19.7181 18.7431C20.3756 18.7431 20.9935 18.4871 21.4583 18.0224C21.9231 17.5576 22.1791 16.9395 22.1791 16.2822C22.1791 15.6248 21.9231 15.0069 21.4583 14.542L17.978 18.0223C18.4428 18.4871 19.0608 18.7431 19.7181 18.7431Z" fill="#6BA7FF"/>
</g>
<defs>
<clipPath id="clip0">
<rect width="36" height="36" fill="white"/>
</clipPath>
</defs>
</svg>
