<svg width="36" height="36" viewBox="0 0 36 36" fill="none" xmlns="http://www.w3.org/2000/svg">
<g clip-path="url(#clip0)">
<path d="M15.2098 0.0973206C10.1151 0.0973206 5.96973 4.24266 5.96973 9.33742V15.1125H6.54723C6.54723 13.8368 7.58155 12.8025 8.85726 12.8025V9.91492H11.9706C14.4365 9.91492 16.8245 9.0504 18.7193 7.4715L19.2524 7.02739L20.2971 8.33314C21.116 9.35705 21.5624 10.6293 21.5624 11.9408V12.8025C22.8381 12.8025 23.8724 13.8368 23.8724 15.1125H24.4499V9.33742C24.4499 4.24266 20.3046 0.0973206 15.2098 0.0973206Z" fill="#FF974C"/>
<path d="M30.143 16.8392L26.6722 16.3437C26.0641 16.2565 25.605 15.7269 25.605 15.1125C25.605 14.498 26.0641 13.9684 26.6728 13.8812L30.1436 13.3857L30.307 14.5292L26.8362 15.0247C26.7923 15.031 26.76 15.068 26.76 15.1125C26.76 15.1569 26.7923 15.1939 26.8362 15.1997L30.307 15.6952L30.143 16.8392Z" fill="#8CB589"/>
<path d="M28.6241 27.8355C28.1153 26.1065 26.7177 24.7441 24.9777 24.281L19.2523 22.754V21.3074C20.3906 20.4856 21.2678 19.3294 21.7425 17.9821C23.2492 17.8868 24.4499 16.6429 24.4499 15.1125C24.4499 13.7184 23.456 12.5518 22.1399 12.2833V11.9408C22.1399 10.504 21.6455 9.09428 20.7481 7.97219L19.3355 6.20618L18.3497 7.02797C16.5629 8.51736 14.2973 9.33742 11.9711 9.33742H8.27971V12.2833C6.96357 12.5518 5.96968 13.7178 5.96968 15.1125C5.96968 16.6429 7.17032 17.8868 8.67703 17.9821C9.15116 19.33 10.0284 20.4862 11.1672 21.3074V22.7615L5.94658 24.2532C4.22446 24.7459 2.89388 26.0655 2.38857 27.7841L0 35.9027H30.9971L28.6241 27.8355ZM23.2949 15.1125C23.2949 15.8985 22.7659 16.5562 22.0475 16.7676C22.1029 16.4153 22.1399 16.0573 22.1399 15.69V13.4862C22.8103 13.7253 23.2949 14.3606 23.2949 15.1125ZM7.12469 15.1125C7.12469 14.3606 7.60922 13.7253 8.27971 13.4862V15.69C8.27971 16.0573 8.31667 16.4153 8.37211 16.767C7.65369 16.5562 7.12469 15.8985 7.12469 15.1125ZM9.43472 15.69V10.4924H11.9711C14.567 10.4924 17.0948 9.57708 19.0895 7.91502L19.1697 7.8486L19.846 8.69407C20.5806 9.61173 20.9848 10.765 20.9848 11.9408V15.69C20.9848 18.8744 18.3941 21.465 15.2098 21.465C12.0254 21.465 9.43472 18.8744 9.43472 15.69ZM15.2098 22.6201C16.2412 22.6201 17.2172 22.3873 18.0973 21.9819V23.0035C17.8028 23.361 16.8395 24.3526 15.2098 24.3526C13.576 24.3526 12.6174 23.3639 12.3222 23.0041V21.9819C13.2024 22.3873 14.1784 22.6201 15.2098 22.6201ZM3.49622 28.1104C3.89008 26.7735 4.92439 25.7467 6.26363 25.3644L11.5357 23.8582C12.0427 24.4277 13.2619 25.5076 15.2098 25.5076C17.1652 25.5076 18.3849 24.4201 18.8896 23.8525L24.6797 25.3967C26.034 25.7576 27.1208 26.8174 27.5164 28.1618L29.4528 34.7477H24.9598L24.4453 30.6335L23.2995 30.7768L23.7956 34.7477H7.2015L7.69758 30.7768L6.55181 30.6335L6.03725 34.7477H1.54425L3.49622 28.1104Z" fill="#8CB589"/>
<path d="M32.535 11.6474H29.6475V18.5775H32.535V11.6474Z" fill="#FF974C"/>
<path d="M34.2679 24.3525V19.7325H35.4229V10.4924H31.9579V19.7325H33.1129V24.3525H31.3804V33.5926C31.3804 34.8666 32.4164 35.9027 33.6904 35.9027C34.9644 35.9027 36.0004 34.8666 36.0004 33.5926V24.3525H34.2679ZM33.1129 11.6474H34.2679V18.5775H33.1129V11.6474ZM34.8454 33.5926C34.8454 34.2296 34.3274 34.7477 33.6904 34.7477C33.0534 34.7477 32.5354 34.2296 32.5354 33.5926V25.5076H34.8454V33.5926Z" fill="#8CB589"/>
</g>
<defs>
<clipPath id="clip0">
<rect width="36" height="36" fill="white"/>
</clipPath>
</defs>
</svg>
