<svg width="64" height="64" viewBox="0 0 64 64" fill="none" xmlns="http://www.w3.org/2000/svg">
<g clip-path="url(#clip0)">
<path d="M56.4972 42.7391C54.777 47.4012 52.1754 51.4549 48.7638 54.7864C44.8805 58.5784 39.7955 61.5916 33.65 63.741C33.4484 63.8113 33.2379 63.869 33.0265 63.9114C32.7472 63.9666 32.463 63.9964 32.1813 64.0003H32.1261C31.8258 64.0003 31.5241 63.97 31.2247 63.9114C31.0133 63.869 30.8058 63.8113 30.6051 63.7425C24.4523 61.5965 19.361 58.5848 15.4737 54.7928C12.0607 51.4612 9.45958 47.41 7.74181 42.7478C4.61827 34.2713 4.796 24.9334 4.93907 17.4295L4.94151 17.3142C4.97032 16.6946 4.98887 16.0437 4.99913 15.325C5.05137 11.7962 7.85704 8.87674 11.3863 8.67996C18.7447 8.26932 24.4371 5.86941 29.3009 1.12869L29.3434 1.08963C30.151 0.348904 31.1686 -0.0143775 32.1813 0.000759289C33.1578 0.0134546 34.1305 0.376248 34.9093 1.08963L34.9508 1.12869C39.8156 5.86941 45.5079 8.26932 52.8664 8.67996C56.3957 8.87674 59.2013 11.7962 59.2536 15.325C59.2638 16.0486 59.2824 16.6985 59.3112 17.3142L59.3126 17.3631C59.4552 24.8811 59.632 34.2376 56.4972 42.7391Z" fill="#8CB589"/>
<path d="M56.4971 42.7388C54.7769 47.4009 52.1753 51.4546 48.7637 54.7862C44.8804 58.5782 39.7954 61.5914 33.6499 63.7408C33.4482 63.8111 33.2378 63.8687 33.0264 63.9112C32.7471 63.9664 32.4629 63.9961 32.1812 64.0001V0.000488281C33.1577 0.0131836 34.1304 0.375977 34.9092 1.08936L34.9507 1.12842C39.8154 5.86915 45.5078 8.26905 52.8662 8.6797C56.3955 8.87647 59.2012 11.7959 59.2535 15.3247C59.2637 16.0484 59.2823 16.6983 59.3111 17.314L59.3125 17.3628C59.4551 24.8809 59.6319 34.2373 56.4971 42.7388Z" fill="#81A67E"/>
<path d="M48.0752 32C48.0752 40.7759 40.9497 47.9195 32.1812 47.9507H32.125C23.3306 47.9507 16.1743 40.7949 16.1743 32C16.1743 23.2056 23.3306 16.0498 32.125 16.0498H32.1812C40.9497 16.0811 48.0752 23.2246 48.0752 32Z" fill="#FEB179"/>
<path d="M48.0752 32C48.0752 40.7759 40.9497 47.9195 32.1812 47.9507V16.0498C40.9497 16.0811 48.0752 23.2246 48.0752 32Z" fill="#FF974C"/>
<path d="M39.3647 29.7031L32.1812 36.8877L30.6289 38.44C30.2622 38.8067 29.7812 38.9898 29.3008 38.9898C28.8198 38.9898 28.3394 38.8067 27.9722 38.44L24.6348 35.1011C23.9014 34.3677 23.9014 33.1797 24.6348 32.4458C25.3672 31.7124 26.5566 31.7124 27.29 32.4458L29.3008 34.4566L36.7095 27.0479C37.4429 26.314 38.6323 26.314 39.3647 27.0479C40.0981 27.7813 40.0981 28.9707 39.3647 29.7031Z" fill="white"/>
<path d="M39.3647 29.7031L32.1812 36.8877V31.5757L36.7095 27.0479C37.4429 26.314 38.6323 26.314 39.3647 27.0479C40.0981 27.7813 40.0981 28.9707 39.3647 29.7031Z" fill="#E3F2F3"/>
</g>
<defs>
<clipPath id="clip0">
<rect width="64" height="64" fill="white"/>
</clipPath>
</defs>
</svg>
