<svg width="64" height="64" viewBox="0 0 64 64" fill="none" xmlns="http://www.w3.org/2000/svg">
<circle cx="31.5" cy="15.5" r="12.5" fill="#8CB589"/>
<path d="M31.5439 30.829C35.7793 30.829 39.4463 29.31 42.4434 26.3129C45.4395 23.3164 46.959 19.6499 46.959 15.414C46.959 11.1797 45.4399 7.51268 42.4429 4.51513C39.4458 1.51904 35.7788 0 31.5439 0C27.3081 0 23.6416 1.51904 20.645 4.51562C17.6484 7.51219 16.1289 11.1792 16.1289 15.414C16.1289 19.6499 17.6484 23.3169 20.645 26.3134C23.6426 29.3095 27.3096 30.829 31.5439 30.829ZM23.2974 7.16747C25.5967 4.86816 28.2939 3.75048 31.5439 3.75048C34.7935 3.75048 37.4912 4.86816 39.791 7.16747C42.0903 9.46727 43.2085 12.165 43.2085 15.414C43.2085 18.664 42.0903 21.3613 39.791 23.6611C37.4912 25.9609 34.7935 27.0786 31.5439 27.0786C28.2949 27.0786 25.5977 25.9604 23.2974 23.6611C20.9976 21.3618 19.8794 18.664 19.8794 15.414C19.8794 12.165 20.9976 9.46727 23.2974 7.16747Z" fill="black"/>
<path d="M31.5439 30.829C35.7793 30.829 39.4463 29.31 42.4434 26.3129C45.4395 23.3164 46.959 19.6499 46.959 15.414C46.959 11.1797 45.4399 7.51268 42.4429 4.51513C39.4458 1.51904 35.7788 0 31.5439 0C27.3081 0 23.6416 1.51904 20.645 4.51562C17.6484 7.51219 16.1289 11.1792 16.1289 15.414C16.1289 19.6499 17.6484 23.3169 20.645 26.3134C23.6426 29.3095 27.3096 30.829 31.5439 30.829ZM23.2974 7.16747C25.5967 4.86816 28.2939 3.75048 31.5439 3.75048C34.7935 3.75048 37.4912 4.86816 39.791 7.16747C42.0903 9.46727 43.2085 12.165 43.2085 15.414C43.2085 18.664 42.0903 21.3613 39.791 23.6611C37.4912 25.9609 34.7935 27.0786 31.5439 27.0786C28.2949 27.0786 25.5977 25.9604 23.2974 23.6611C20.9976 21.3618 19.8794 18.664 19.8794 15.414C19.8794 12.165 20.9976 9.46727 23.2974 7.16747Z" fill="#81A67E"/>
<path d="M55.8813 49.5919C55.8019 48.4611 55.6415 47.2276 55.4054 45.9251C55.167 44.6128 54.8601 43.3722 54.4926 42.2383C54.1127 41.0664 53.5969 39.909 52.9584 38.8C52.2966 37.6488 51.5187 36.6465 50.6458 35.8216C49.7331 34.9587 48.6155 34.2649 47.3233 33.7589C46.0355 33.2555 44.6083 33.0004 43.0817 33.0004C42.4821 33.0004 41.9023 33.2435 40.7826 33.9639C40.0934 34.4079 39.2873 34.9215 38.3875 35.4896C37.6182 35.9739 36.5759 36.4277 35.2886 36.8386C34.0326 37.2402 32.7573 37.4438 31.4982 37.4438C30.24 37.4438 28.9647 37.2402 27.7078 36.8386C26.4218 36.4282 25.3791 35.9744 24.6111 35.49C23.7199 34.9273 22.9133 34.4137 22.2139 33.9634C21.095 33.2431 20.5152 33 19.9156 33C18.3886 33 16.9618 33.2555 15.6745 33.7593C14.3831 34.2645 13.2651 34.9583 12.3515 35.8221C11.4786 36.6473 10.7007 37.6493 10.0394 38.8C9.40174 39.909 8.88555 41.0659 8.50557 42.2388C8.13859 43.3726 7.83165 44.6128 7.59327 45.9251C7.35668 47.2259 7.19671 48.4598 7.1174 49.5932C7.03943 50.7014 7 51.8548 7 53.0201C7 56.0493 7.97459 58.5017 9.89643 60.3103C11.7945 62.095 14.3056 63 17.3602 63H45.6398C48.6935 63 51.2046 62.095 53.1031 60.3103C55.0254 58.503 56 56.0498 56 53.0196C55.9996 51.8503 55.9597 50.697 55.8813 49.5919ZM50.7301 57.8464C49.4759 59.0259 47.8108 59.5993 45.6394 59.5993H17.3602C15.1883 59.5993 13.5232 59.0259 12.2695 57.8469C11.0395 56.69 10.4417 55.1107 10.4417 53.0201C10.4417 51.9327 10.478 50.859 10.5506 49.8283C10.6214 48.8171 10.7662 47.7062 10.9808 46.5259C11.1927 45.3601 11.4625 44.2661 11.7833 43.2757C12.0912 42.326 12.511 41.3856 13.0317 40.4797C13.5286 39.6164 14.1004 38.8757 14.7313 38.2789C15.3214 37.7206 16.0652 37.2636 16.9417 36.921C17.7523 36.6039 18.6632 36.4304 19.6522 36.4043C19.7727 36.4676 19.9873 36.5885 20.335 36.8125C21.0426 37.2681 21.8581 37.7879 22.7596 38.3568C23.7759 38.997 25.0852 39.5752 26.6495 40.0742C28.2487 40.5851 29.8797 40.8446 31.4987 40.8446C33.1176 40.8446 34.7491 40.5851 36.3474 40.0746C37.913 39.5748 39.2219 38.997 40.2395 38.3559C41.1621 37.7732 41.9547 37.2685 42.6623 36.8125C43.01 36.5889 43.2246 36.4676 43.3452 36.4043C44.3345 36.4304 45.2455 36.6039 46.0565 36.921C46.9325 37.2636 47.6764 37.721 48.2665 38.2789C48.8974 38.8752 49.4691 39.6159 49.9661 40.4802C50.4872 41.3856 50.9075 42.3264 51.2149 43.2752C51.5362 44.267 51.8064 45.3606 52.0179 46.5254C52.232 47.708 52.3772 48.8193 52.448 49.8288V49.8296C52.5211 50.8564 52.5578 51.9296 52.5583 53.0201C52.5578 55.1112 51.9601 56.69 50.7301 57.8464Z" fill="#FEB179"/>
<rect x="12" y="38" width="40" height="21" fill="#FEB179"/>
<path d="M52.8934 49.9327C52.8222 48.915 52.6781 47.8049 52.4661 46.6326C52.252 45.4515 51.9764 44.335 51.6465 43.3145C51.3052 42.2597 50.8421 41.2181 50.2688 40.22C49.6745 39.1839 48.976 38.2818 48.1922 37.5395C47.3726 36.7628 46.3691 36.1384 45.2086 35.683C44.0522 35.2299 42.7707 35.0004 41.3999 35.0004C40.8615 35.0004 40.3409 35.2192 39.3354 35.8675C38.7165 36.2671 37.9927 36.7294 37.1847 37.2406C36.4939 37.6765 35.558 38.085 34.402 38.4547C33.2742 38.8162 32.129 38.9995 30.9984 38.9995C29.8686 38.9995 28.7234 38.8162 27.5948 38.4547C26.44 38.0854 25.5037 37.6769 24.8141 37.241C24.0138 36.7345 23.2895 36.2723 22.6614 35.8671C21.6567 35.2188 21.1361 35 20.5977 35C19.2265 35 17.9453 35.2299 16.7893 35.6834C15.6297 36.138 14.6258 36.7624 13.8054 37.5399C13.0216 38.2826 12.3231 39.1843 11.7292 40.22C11.1567 41.2181 10.6931 42.2593 10.3519 43.3149C10.0224 44.3354 9.74679 45.4515 9.53273 46.6326C9.32028 47.8033 9.17664 48.9138 9.10542 49.9339C9.03541 50.9313 9 51.9693 9 53.0181C9 55.7444 9.87514 57.9515 11.6009 59.5793C13.3053 61.1855 15.5601 62 18.303 62H43.697C46.4391 62 48.6939 61.1855 50.3987 59.5793C52.1249 57.9527 53 55.7448 53 53.0177C52.9996 51.9653 52.9638 50.9273 52.8934 49.9327ZM48.2678 57.3618C47.1416 58.4233 45.6464 58.9393 43.6966 58.9393H18.303C16.3528 58.9393 14.8576 58.4233 13.7318 57.3622C12.6273 56.321 12.0905 54.8996 12.0905 53.0181C12.0905 52.0394 12.1231 51.0731 12.1883 50.1455C12.2519 49.2354 12.3819 48.2356 12.5746 47.1733C12.7649 46.1241 13.0071 45.1395 13.2952 44.2481C13.5716 43.3934 13.9487 42.547 14.4162 41.7318C14.8624 40.9548 15.3758 40.2881 15.9424 39.751C16.4723 39.2485 17.1402 38.8373 17.9272 38.5289C18.6551 38.2436 19.4731 38.0874 20.3611 38.0638C20.4694 38.1208 20.6621 38.2296 20.9743 38.4312C21.6097 38.8413 22.342 39.3091 23.1515 39.8211C24.0641 40.3973 25.2398 40.9177 26.6444 41.3668C28.0805 41.8266 29.5451 42.0601 30.9988 42.0601C32.4525 42.0601 33.9175 41.8266 35.3528 41.3672C36.7586 40.9173 37.9339 40.3973 38.8477 39.8203C39.6762 39.2959 40.3879 38.8417 41.0233 38.4312C41.3355 38.23 41.5282 38.1208 41.6365 38.0638C42.5249 38.0874 43.3429 38.2436 44.0712 38.5289C44.8578 38.8373 45.5257 39.2489 46.0556 39.751C46.6221 40.2877 47.1356 40.9544 47.5818 41.7322C48.0497 42.547 48.4271 43.3938 48.7032 44.2477C48.9917 45.1403 49.2343 46.1245 49.4242 47.1729C49.6165 48.2372 49.7469 49.2374 49.8105 50.1459V50.1467C49.8761 51.0707 49.909 52.0366 49.9095 53.0181C49.909 54.9 49.3723 56.321 48.2678 57.3618Z" fill="#FEB179"/>
<path d="M51.9006 49.8266C51.8343 48.8843 51.7001 47.8564 51.5025 46.7709C51.303 45.6773 51.0462 44.6435 50.7387 43.6986C50.4208 42.722 49.9893 41.7575 49.455 40.8333C48.9012 39.874 48.2503 39.0387 47.52 38.3513C46.7562 37.6323 45.8212 37.0541 44.7399 36.6324C43.6623 36.2129 42.4682 36.0004 41.1908 36.0004C40.6891 36.0004 40.204 36.2029 39.267 36.8032C38.6904 37.1733 38.0159 37.6013 37.263 38.0746C36.6193 38.4783 35.7472 38.8564 34.67 39.1988C33.6191 39.5335 32.5521 39.7032 31.4985 39.7032C30.4457 39.7032 29.3787 39.5335 28.327 39.1988C27.2509 38.8568 26.3785 38.4786 25.7358 38.075C24.9901 37.6061 24.3152 37.1781 23.73 36.8028C22.7938 36.2026 22.3086 36 21.807 36C20.5292 36 19.3354 36.2129 18.2583 36.6328C17.1777 37.0537 16.2423 37.6319 15.4778 38.3517C14.7474 39.0394 14.0965 39.8744 13.5431 40.8333C13.0096 41.7575 12.5777 42.7216 12.2598 43.699C11.9527 44.6439 11.6959 45.6773 11.4964 46.7709C11.2984 47.8549 11.1646 48.8832 11.0982 49.8277C11.033 50.7512 11 51.7123 11 52.6834C11 55.2078 11.8155 57.2514 13.4235 58.7586C15.0117 60.2459 17.1128 61 19.6687 61H43.3313C45.8864 61 47.9875 60.2459 49.5761 58.7586C51.1845 57.2525 52 55.2081 52 52.683C51.9996 51.7086 51.9663 50.7475 51.9006 49.8266ZM47.5905 56.7054C46.541 57.6883 45.1478 58.1661 43.3309 58.1661H19.6687C17.8515 58.1661 16.4582 57.6883 15.4092 56.7057C14.38 55.7417 13.8798 54.4256 13.8798 52.6834C13.8798 51.7772 13.9102 50.8825 13.9709 50.0236C14.0302 49.1809 14.1513 48.2552 14.3309 47.2716C14.5082 46.3001 14.7339 45.3884 15.0024 44.5631C15.2599 43.7717 15.6113 42.988 16.0469 42.2331C16.4627 41.5137 16.9411 40.8964 17.469 40.399C17.9628 39.9338 18.5852 39.553 19.3186 39.2675C19.9968 39.0033 20.759 38.8587 21.5865 38.8369C21.6874 38.8897 21.8669 38.9904 22.1579 39.1771C22.7499 39.5567 23.4323 39.9899 24.1866 40.464C25.037 40.9975 26.1325 41.4793 27.4414 41.8952C28.7795 42.3209 30.1443 42.5371 31.4989 42.5371C32.8535 42.5371 34.2186 42.3209 35.556 41.8955C36.866 41.479 37.9612 40.9975 38.8126 40.4632C39.5846 39.9777 40.2478 39.5571 40.8399 39.1771C41.1308 38.9907 41.3104 38.8897 41.4113 38.8369C42.2391 38.8587 43.0013 39.0033 43.6799 39.2675C44.4129 39.553 45.0353 39.9342 45.5291 40.399C46.057 40.896 46.5354 41.5133 46.9512 42.2335C47.3872 42.988 47.7389 43.772 47.9961 44.5627C48.265 45.3892 48.491 46.3005 48.668 47.2712C48.8472 48.2567 48.9687 49.1828 49.0279 50.024V50.0247C49.0891 50.8803 49.1198 51.7747 49.1202 52.6834C49.1198 54.426 48.6196 55.7417 47.5905 56.7054Z" fill="#FEB179"/>
<path d="M58.5161 49.2128C58.4297 47.9657 58.2549 46.6054 57.9976 45.1689C57.7378 43.7216 57.4033 42.3534 57.0029 41.1029C56.5889 39.8105 56.0269 38.5341 55.3311 37.311C54.6099 36.0414 53.7622 34.936 52.811 34.0263C51.8164 33.0746 50.5986 32.3095 49.1904 31.7514C47.7871 31.1962 46.2319 30.915 44.5684 30.915C43.915 30.915 43.2832 31.183 42.063 31.9775C41.312 32.4672 40.4336 33.0336 39.4531 33.6601C38.6147 34.1943 37.479 34.6948 36.0762 35.1479C34.7075 35.5908 33.3179 35.8154 31.9458 35.8154C30.5747 35.8154 29.1851 35.5908 27.8154 35.1479C26.4141 34.6952 25.2778 34.1948 24.4409 33.6606C23.4697 33.04 22.5908 32.4736 21.8286 31.977C20.6094 31.1826 19.9775 30.9145 19.3242 30.9145C17.6602 30.9145 16.1055 31.1962 14.7026 31.7519C13.2954 32.309 12.0771 33.0742 11.0815 34.0268C10.1304 34.9369 9.28271 36.0419 8.56201 37.311C7.86719 38.5341 7.30469 39.81 6.89062 41.1034C6.49072 42.3539 6.15625 43.7216 5.89648 45.1689C5.63867 46.6034 5.46436 47.9643 5.37793 49.2143C5.29297 50.4364 5.25 51.7084 5.25 52.9935C5.25 56.3344 6.31201 59.0389 8.40625 61.0336C10.4746 63.0018 13.2109 63.9999 16.5396 63.9999H47.356C50.6836 63.9999 53.4199 63.0018 55.4888 61.0336C57.5835 59.0404 58.6455 56.3349 58.6455 52.9931C58.645 51.7035 58.6016 50.4315 58.5161 49.2128ZM52.9028 58.3163C51.5361 59.6171 49.7217 60.2494 47.3555 60.2494H16.5396C14.1729 60.2494 12.3584 59.6171 10.9922 58.3168C9.65186 57.0409 9.00049 55.2992 9.00049 52.9935C9.00049 51.7943 9.04004 50.6103 9.11914 49.4735C9.19629 48.3583 9.354 47.1332 9.58789 45.8315C9.81885 44.5458 10.1128 43.3393 10.4624 42.247C10.7979 41.1996 11.2554 40.1625 11.8228 39.1635C12.3643 38.2114 12.9873 37.3945 13.6748 36.7363C14.3179 36.1205 15.1284 35.6166 16.0835 35.2387C16.9668 34.8891 17.9595 34.6977 19.0371 34.6689C19.1685 34.7387 19.4023 34.872 19.7812 35.1191C20.5522 35.6215 21.4409 36.1948 22.4233 36.8222C23.5308 37.5282 24.9575 38.1659 26.6621 38.7162C28.4048 39.2797 30.1821 39.5658 31.9463 39.5658C33.7104 39.5658 35.4883 39.2797 37.23 38.7167C38.936 38.1655 40.3623 37.5282 41.4712 36.8212C42.4766 36.1786 43.3403 35.622 44.1113 35.1191C44.4902 34.8725 44.7241 34.7387 44.8555 34.6689C45.9336 34.6977 46.9263 34.8891 47.8101 35.2387C48.7646 35.6166 49.5752 36.121 50.2183 36.7363C50.9058 37.394 51.5288 38.2109 52.0703 39.164C52.6382 40.1625 53.0962 41.2001 53.4312 42.2465C53.7812 43.3402 54.0757 44.5463 54.3062 45.831C54.5396 47.1352 54.6978 48.3607 54.7749 49.474V49.475C54.8545 50.6073 54.8945 51.7909 54.895 52.9935C54.8945 55.2997 54.2432 57.0409 52.9028 58.3163Z" fill="#FF974C"/>
</svg>
